<svg xmlns="http://www.w3.org/2000/svg" version="1.1" xmlns:xlink="http://www.w3.org/1999/xlink" xmlns:svgjs="http://svgjs.com/svgjs" width="1440" height="560" preserveAspectRatio="none" viewBox="0 0 1440 560"><g mask="url(&quot;#SvgjsMask1028&quot;)" fill="none"><rect width="1440" height="560" x="0" y="0" fill="rgba(62, 6, 95, 1)"></rect><path d="M 0,48 C 57.6,75.4 172.8,190.2 288,185 C 403.2,179.8 460.8,26.4 576,22 C 691.2,17.6 748.8,162.6 864,163 C 979.2,163.4 1036.8,10 1152,24 C 1267.2,38 1382.4,191.2 1440,233L1440 560L0 560z" fill="rgba(112, 11, 151, 1)"></path><path d="M 0,541 C 72,490.4 216,287.4 360,288 C 504,288.6 576,545.2 720,544 C 864,542.8 936,305.2 1080,282 C 1224,258.8 1368,398.8 1440,428L1440 560L0 560z" fill="rgba(157, 0, 217, 1)"></path></g><defs><mask id="SvgjsMask1028"><rect width="1440" height="560" fill="#ffffff"></rect></mask></defs></svg>